<svg xmlns="http://www.w3.org/2000/svg" xmlns:xlink="http://www.w3.org/1999/xlink" version="1.1" width="863px" height="493px" viewBox="-0.5 -0.5 863 493"><defs><clipPath id="mx-clip-1-121-60-30-0"><rect x="1" y="121" width="60" height="30"/></clipPath><clipPath id="mx-clip-67-121-114-30-0"><rect x="67" y="121" width="114" height="30"/></clipPath><clipPath id="mx-clip-1-151-60-30-0"><rect x="1" y="151" width="60" height="30"/></clipPath><clipPath id="mx-clip-67-151-114-30-0"><rect x="67" y="151" width="114" height="30"/></clipPath><clipPath id="mx-clip-1-181-60-30-0"><rect x="1" y="181" width="60" height="30"/></clipPath><clipPath id="mx-clip-67-181-114-30-0"><rect x="67" y="181" width="114" height="30"/></clipPath><clipPath id="mx-clip-1-211-60-30-0"><rect x="1" y="211" width="60" height="30"/></clipPath><clipPath id="mx-clip-67-211-114-30-0"><rect x="67" y="211" width="114" height="30"/></clipPath><clipPath id="mx-clip-1-241-60-30-0"><rect x="1" y="241" width="60" height="30"/></clipPath><clipPath id="mx-clip-67-241-114-30-0"><rect x="67" y="241" width="114" height="30"/></clipPath><clipPath id="mx-clip-1-271-60-30-0"><rect x="1" y="271" width="60" height="30"/></clipPath><clipPath id="mx-clip-67-271-114-30-0"><rect x="67" y="271" width="114" height="30"/></clipPath><clipPath id="mx-clip-1-301-60-30-0"><rect x="1" y="301" width="60" height="30"/></clipPath><clipPath id="mx-clip-67-301-114-30-0"><rect x="67" y="301" width="114" height="30"/></clipPath><clipPath id="mx-clip-681-91-60-30-0"><rect x="681" y="91" width="60" height="30"/></clipPath><clipPath id="mx-clip-747-91-114-30-0"><rect x="747" y="91" width="114" height="30"/></clipPath><clipPath id="mx-clip-681-121-60-30-0"><rect x="681" y="121" width="60" height="30"/></clipPath><clipPath id="mx-clip-747-121-114-30-0"><rect x="747" y="121" width="114" height="30"/></clipPath><clipPath id="mx-clip-681-151-60-30-0"><rect x="681" y="151" width="60" height="30"/></clipPath><clipPath id="mx-clip-747-151-114-30-0"><rect x="747" y="151" width="114" height="30"/></clipPath><clipPath id="mx-clip-681-181-60-30-0"><rect x="681" y="181" width="60" height="30"/></clipPath><clipPath id="mx-clip-747-181-114-30-0"><rect x="747" y="181" width="114" height="30"/></clipPath><clipPath id="mx-clip-681-211-60-30-0"><rect x="681" y="211" width="60" height="30"/></clipPath><clipPath id="mx-clip-747-211-114-30-0"><rect x="747" y="211" width="114" height="30"/></clipPath><clipPath id="mx-clip-681-241-60-30-0"><rect x="681" y="241" width="60" height="30"/></clipPath><clipPath id="mx-clip-747-241-114-30-0"><rect x="747" y="241" width="114" height="30"/></clipPath><clipPath id="mx-clip-681-271-60-30-0"><rect x="681" y="271" width="60" height="30"/></clipPath><clipPath id="mx-clip-747-271-114-30-0"><rect x="747" y="271" width="114" height="30"/></clipPath><clipPath id="mx-clip-681-401-60-30-0"><rect x="681" y="401" width="60" height="30"/></clipPath><clipPath id="mx-clip-747-401-114-30-0"><rect x="747" y="401" width="114" height="30"/></clipPath><clipPath id="mx-clip-681-431-60-30-0"><rect x="681" y="431" width="60" height="30"/></clipPath><clipPath id="mx-clip-747-431-114-30-0"><rect x="747" y="431" width="114" height="30"/></clipPath><clipPath id="mx-clip-681-461-60-30-0"><rect x="681" y="461" width="60" height="30"/></clipPath><clipPath id="mx-clip-747-461-114-30-0"><rect x="747" y="461" width="114" height="30"/></clipPath><clipPath id="mx-clip-331-31-60-30-0"><rect x="331" y="31" width="60" height="30"/></clipPath><clipPath id="mx-clip-397-31-114-30-0"><rect x="397" y="31" width="114" height="30"/></clipPath><clipPath id="mx-clip-331-61-60-30-0"><rect x="331" y="61" width="60" height="30"/></clipPath><clipPath id="mx-clip-397-61-114-30-0"><rect x="397" y="61" width="114" height="30"/></clipPath><clipPath id="mx-clip-331-91-60-30-0"><rect x="331" y="91" width="60" height="30"/></clipPath><clipPath id="mx-clip-397-91-114-30-0"><rect x="397" y="91" width="114" height="30"/></clipPath><clipPath id="mx-clip-331-211-60-30-0"><rect x="331" y="211" width="60" height="30"/></clipPath><clipPath id="mx-clip-397-211-114-30-0"><rect x="397" y="211" width="114" height="30"/></clipPath><clipPath id="mx-clip-331-241-60-30-0"><rect x="331" y="241" width="60" height="30"/></clipPath><clipPath id="mx-clip-397-241-114-30-0"><rect x="397" y="241" width="114" height="30"/></clipPath><clipPath id="mx-clip-331-271-60-30-0"><rect x="331" y="271" width="60" height="30"/></clipPath><clipPath id="mx-clip-397-271-114-30-0"><rect x="397" y="271" width="114" height="30"/></clipPath><clipPath id="mx-clip-331-371-60-30-0"><rect x="331" y="371" width="60" height="30"/></clipPath><clipPath id="mx-clip-397-371-114-30-0"><rect x="397" y="371" width="114" height="30"/></clipPath><clipPath id="mx-clip-331-401-60-30-0"><rect x="331" y="401" width="60" height="30"/></clipPath><clipPath id="mx-clip-397-401-114-30-0"><rect x="397" y="401" width="114" height="30"/></clipPath><clipPath id="mx-clip-331-431-60-30-0"><rect x="331" y="431" width="60" height="30"/></clipPath><clipPath id="mx-clip-397-431-114-30-0"><rect x="397" y="431" width="114" height="30"/></clipPath><clipPath id="mx-clip-331-461-60-30-0"><rect x="331" y="461" width="60" height="30"/></clipPath><clipPath id="mx-clip-397-461-114-30-0"><rect x="397" y="461" width="114" height="30"/></clipPath></defs><g><path d="M 181 121 L 181 104.5 Q 181 91 167.5 91 L 14.5 91 Q 1 91 1 104.5 L 1 121" fill="#b3b3b3" stroke="#000000" stroke-width="2" stroke-miterlimit="10" pointer-events="all"/><path d="M 1 121 L 1 317.5 Q 1 331 14.5 331 L 167.5 331 Q 181 331 181 317.5 L 181 121" fill="none" stroke="#000000" stroke-width="2" stroke-miterlimit="10" pointer-events="none"/><path d="M 1 121 L 181 121" fill="none" stroke="#000000" stroke-width="2" stroke-miterlimit="10" pointer-events="none"/><path d="M 61 121 L 61 331" fill="none" stroke="#000000" stroke-width="2" stroke-miterlimit="10" pointer-events="none"/><g fill="rgba(0, 0, 0, 1)" font-family="Helvetica" font-weight="bold" pointer-events="none" text-anchor="middle" font-size="12px"><text x="90.5" y="110.5">Customer</text></g><path d="M 1 121 M 181 121 M 181 151 L 1 151" fill="none" stroke="#000000" stroke-miterlimit="10" pointer-events="none"/><path d="M 1 121 M 61 121 M 61 151 M 1 151" fill="none" stroke="#000000" stroke-miterlimit="10" pointer-events="none"/><g fill="rgba(0, 0, 0, 1)" font-family="Helvetica" font-weight="bold" pointer-events="none" clip-path="url(#mx-clip-1-121-60-30-0)" text-anchor="middle" font-size="12px"><text x="30.5" y="140.5">PK</text></g><path d="M 61 121 M 181 121 M 181 151 M 61 151" fill="none" stroke="#000000" stroke-miterlimit="10" pointer-events="none"/><g fill="rgba(0, 0, 0, 1)" font-family="Helvetica" font-weight="bold" pointer-events="none" clip-path="url(#mx-clip-67-121-114-30-0)" font-size="12px"><text x="68.5" y="140.5">ID</text></g><path d="M 1 151 M 181 151 M 181 181 M 1 181" fill="none" stroke="#000000" stroke-miterlimit="10" pointer-events="none"/><path d="M 1 151 M 61 151 M 61 181 M 1 181" fill="none" stroke="#000000" stroke-miterlimit="10" pointer-events="none"/><g fill="rgba(0, 0, 0, 1)" font-family="Helvetica" pointer-events="none" clip-path="url(#mx-clip-1-151-60-30-0)" text-anchor="middle" font-size="12px"><text x="30.5" y="170.5">str</text></g><path d="M 61 151 M 181 151 M 181 181 M 61 181" fill="none" stroke="#000000" stroke-miterlimit="10" pointer-events="none"/><g fill="rgba(0, 0, 0, 1)" font-family="Helvetica" pointer-events="none" clip-path="url(#mx-clip-67-151-114-30-0)" font-size="12px"><text x="68.5" y="170.5">username</text></g><path d="M 1 181 M 181 181 M 181 211 M 1 211" fill="none" stroke="#000000" stroke-miterlimit="10" pointer-events="none"/><path d="M 1 181 M 61 181 M 61 211 M 1 211" fill="none" stroke="#000000" stroke-miterlimit="10" pointer-events="none"/><g fill="rgba(0, 0, 0, 1)" font-family="Helvetica" pointer-events="none" clip-path="url(#mx-clip-1-181-60-30-0)" text-anchor="middle" font-size="12px"><text x="30.5" y="200.5">str</text></g><path d="M 61 181 M 181 181 M 181 211 M 61 211" fill="none" stroke="#000000" stroke-miterlimit="10" pointer-events="none"/><g fill="rgba(0, 0, 0, 1)" font-family="Helvetica" pointer-events="none" clip-path="url(#mx-clip-67-181-114-30-0)" font-size="12px"><text x="68.5" y="200.5">password</text></g><path d="M 1 211 M 181 211 M 181 241 M 1 241" fill="none" stroke="#000000" stroke-miterlimit="10" pointer-events="none"/><path d="M 1 211 M 61 211 M 61 241 M 1 241" fill="none" stroke="#000000" stroke-miterlimit="10" pointer-events="none"/><g fill="rgba(0, 0, 0, 1)" font-family="Helvetica" pointer-events="none" clip-path="url(#mx-clip-1-211-60-30-0)" text-anchor="middle" font-size="12px"><text x="30.5" y="230.5">str</text></g><path d="M 61 211 M 181 211 M 181 241 M 61 241" fill="none" stroke="#000000" stroke-miterlimit="10" pointer-events="none"/><g fill="rgba(0, 0, 0, 1)" font-family="Helvetica" pointer-events="none" clip-path="url(#mx-clip-67-211-114-30-0)" font-size="12px"><text x="68.5" y="230.5">email</text></g><path d="M 1 241 M 181 241 M 181 271 M 1 271" fill="none" stroke="#000000" stroke-miterlimit="10" pointer-events="none"/><path d="M 1 241 M 61 241 M 61 271 M 1 271" fill="none" stroke="#000000" stroke-miterlimit="10" pointer-events="none"/><g fill="rgba(0, 0, 0, 1)" font-family="Helvetica" pointer-events="none" clip-path="url(#mx-clip-1-241-60-30-0)" text-anchor="middle" font-size="12px"><text x="30.5" y="260.5">file</text></g><path d="M 61 241 M 181 241 M 181 271 M 61 271" fill="none" stroke="#000000" stroke-miterlimit="10" pointer-events="none"/><g fill="rgba(0, 0, 0, 1)" font-family="Helvetica" pointer-events="none" clip-path="url(#mx-clip-67-241-114-30-0)" font-size="12px"><text x="68.5" y="260.5">image</text></g><path d="M 1 271 M 181 271 M 181 301 M 1 301" fill="none" stroke="#000000" stroke-miterlimit="10" pointer-events="none"/><path d="M 1 271 M 61 271 M 61 301 M 1 301" fill="none" stroke="#000000" stroke-miterlimit="10" pointer-events="none"/><g fill="rgba(0, 0, 0, 1)" font-family="Helvetica" pointer-events="none" clip-path="url(#mx-clip-1-271-60-30-0)" text-anchor="middle" font-size="12px"><text x="30.5" y="290.5">text</text></g><path d="M 61 271 M 181 271 M 181 301 M 61 301" fill="none" stroke="#000000" stroke-miterlimit="10" pointer-events="none"/><g fill="rgba(0, 0, 0, 1)" font-family="Helvetica" pointer-events="none" clip-path="url(#mx-clip-67-271-114-30-0)" font-size="12px"><text x="68.5" y="290.5">address</text></g><path d="M 1 301 M 181 301 M 181 331 M 1 331" fill="none" stroke="#000000" stroke-miterlimit="10" pointer-events="none"/><path d="M 1 301 M 61 301 M 61 331 M 1 331" fill="none" stroke="#000000" stroke-miterlimit="10" pointer-events="none"/><g fill="rgba(0, 0, 0, 1)" font-family="Helvetica" pointer-events="none" clip-path="url(#mx-clip-1-301-60-30-0)" text-anchor="middle" font-size="12px"><text x="30.5" y="320.5">str</text></g><path d="M 61 301 M 181 301 M 181 331 M 61 331" fill="none" stroke="#000000" stroke-miterlimit="10" pointer-events="none"/><g fill="rgba(0, 0, 0, 1)" font-family="Helvetica" pointer-events="none" clip-path="url(#mx-clip-67-301-114-30-0)" font-size="12px"><text x="68.5" y="320.5">phone</text></g><path d="M 861 91 L 861 74.5 Q 861 61 847.5 61 L 694.5 61 Q 681 61 681 74.5 L 681 91" fill="#b3b3b3" stroke="#000000" stroke-width="2" stroke-miterlimit="10" pointer-events="none"/><path d="M 681 91 L 681 287.5 Q 681 301 694.5 301 L 847.5 301 Q 861 301 861 287.5 L 861 91" fill="none" stroke="#000000" stroke-width="2" stroke-miterlimit="10" pointer-events="none"/><path d="M 681 91 L 861 91" fill="none" stroke="#000000" stroke-width="2" stroke-miterlimit="10" pointer-events="none"/><path d="M 741 91 L 741 301" fill="none" stroke="#000000" stroke-width="2" stroke-miterlimit="10" pointer-events="none"/><g fill="rgba(0, 0, 0, 1)" font-family="Helvetica" font-weight="bold" pointer-events="none" text-anchor="middle" font-size="12px"><text x="770.5" y="80.5">Product </text></g><path d="M 681 91 M 861 91 M 861 121 L 681 121" fill="none" stroke="#000000" stroke-miterlimit="10" pointer-events="none"/><path d="M 681 91 M 741 91 M 741 121 M 681 121" fill="none" stroke="#000000" stroke-miterlimit="10" pointer-events="none"/><g fill="rgba(0, 0, 0, 1)" font-family="Helvetica" font-weight="bold" pointer-events="none" clip-path="url(#mx-clip-681-91-60-30-0)" text-anchor="middle" font-size="12px"><text x="710.5" y="110.5">PK</text></g><path d="M 741 91 M 861 91 M 861 121 M 741 121" fill="none" stroke="#000000" stroke-miterlimit="10" pointer-events="none"/><g fill="rgba(0, 0, 0, 1)" font-family="Helvetica" font-weight="bold" pointer-events="none" clip-path="url(#mx-clip-747-91-114-30-0)" font-size="12px"><text x="748.5" y="110.5">ID</text></g><path d="M 681 121 M 861 121 M 861 151 M 681 151" fill="none" stroke="#000000" stroke-miterlimit="10" pointer-events="none"/><path d="M 681 121 M 741 121 M 741 151 M 681 151" fill="none" stroke="#000000" stroke-miterlimit="10" pointer-events="none"/><g fill="rgba(0, 0, 0, 1)" font-family="Helvetica" pointer-events="none" clip-path="url(#mx-clip-681-121-60-30-0)" text-anchor="middle" font-size="12px"><text x="710.5" y="140.5">FK</text></g><path d="M 741 121 M 861 121 M 861 151 M 741 151" fill="none" stroke="#000000" stroke-miterlimit="10" pointer-events="none"/><g fill="rgba(0, 0, 0, 1)" font-family="Helvetica" pointer-events="none" clip-path="url(#mx-clip-747-121-114-30-0)" font-size="12px"><text x="748.5" y="140.5">seller</text></g><path d="M 681 151 M 861 151 M 861 181 M 681 181" fill="none" stroke="#000000" stroke-miterlimit="10" pointer-events="none"/><path d="M 681 151 M 741 151 M 741 181 M 681 181" fill="none" stroke="#000000" stroke-miterlimit="10" pointer-events="none"/><g fill="rgba(0, 0, 0, 1)" font-family="Helvetica" pointer-events="none" clip-path="url(#mx-clip-681-151-60-30-0)" text-anchor="middle" font-size="12px"><text x="710.5" y="170.5">float</text></g><path d="M 741 151 M 861 151 M 861 181 M 741 181" fill="none" stroke="#000000" stroke-miterlimit="10" pointer-events="none"/><g fill="rgba(0, 0, 0, 1)" font-family="Helvetica" pointer-events="none" clip-path="url(#mx-clip-747-151-114-30-0)" font-size="12px"><text x="748.5" y="170.5">price</text></g><path d="M 681 181 M 861 181 M 861 211 M 681 211" fill="none" stroke="#000000" stroke-miterlimit="10" pointer-events="none"/><path d="M 681 181 M 741 181 M 741 211 M 681 211" fill="none" stroke="#000000" stroke-miterlimit="10" pointer-events="none"/><g fill="rgba(0, 0, 0, 1)" font-family="Helvetica" pointer-events="none" clip-path="url(#mx-clip-681-181-60-30-0)" text-anchor="middle" font-size="12px"><text x="710.5" y="200.5">file</text></g><path d="M 741 181 M 861 181 M 861 211 M 741 211" fill="none" stroke="#000000" stroke-miterlimit="10" pointer-events="none"/><g fill="rgba(0, 0, 0, 1)" font-family="Helvetica" pointer-events="none" clip-path="url(#mx-clip-747-181-114-30-0)" font-size="12px"><text x="748.5" y="200.5">image</text></g><path d="M 681 211 M 861 211 M 861 241 M 681 241" fill="none" stroke="#000000" stroke-miterlimit="10" pointer-events="none"/><path d="M 681 211 M 741 211 M 741 241 M 681 241" fill="none" stroke="#000000" stroke-miterlimit="10" pointer-events="none"/><g fill="rgba(0, 0, 0, 1)" font-family="Helvetica" pointer-events="none" clip-path="url(#mx-clip-681-211-60-30-0)" text-anchor="middle" font-size="12px"><text x="710.5" y="230.5">str</text></g><path d="M 741 211 M 861 211 M 861 241 M 741 241" fill="none" stroke="#000000" stroke-miterlimit="10" pointer-events="none"/><g fill="rgba(0, 0, 0, 1)" font-family="Helvetica" pointer-events="none" clip-path="url(#mx-clip-747-211-114-30-0)" font-size="12px"><text x="748.5" y="230.5">name</text></g><path d="M 681 241 M 861 241 M 861 271 M 681 271" fill="none" stroke="#000000" stroke-miterlimit="10" pointer-events="none"/><path d="M 681 241 M 741 241 M 741 271 M 681 271" fill="none" stroke="#000000" stroke-miterlimit="10" pointer-events="none"/><g fill="rgba(0, 0, 0, 1)" font-family="Helvetica" pointer-events="none" clip-path="url(#mx-clip-681-241-60-30-0)" text-anchor="middle" font-size="12px"><text x="710.5" y="260.5">text</text></g><path d="M 741 241 M 861 241 M 861 271 M 741 271" fill="none" stroke="#000000" stroke-miterlimit="10" pointer-events="none"/><g fill="rgba(0, 0, 0, 1)" font-family="Helvetica" pointer-events="none" clip-path="url(#mx-clip-747-241-114-30-0)" font-size="12px"><text x="748.5" y="260.5">description</text></g><path d="M 681 271 M 861 271 M 861 301 M 681 301" fill="none" stroke="#000000" stroke-miterlimit="10" pointer-events="none"/><path d="M 681 271 M 741 271 M 741 301 M 681 301" fill="none" stroke="#000000" stroke-miterlimit="10" pointer-events="none"/><g fill="rgba(0, 0, 0, 1)" font-family="Helvetica" pointer-events="none" clip-path="url(#mx-clip-681-271-60-30-0)" text-anchor="middle" font-size="12px"><text x="710.5" y="290.5">FK</text></g><path d="M 741 271 M 861 271 M 861 301 M 741 301" fill="none" stroke="#000000" stroke-miterlimit="10" pointer-events="none"/><g fill="rgba(0, 0, 0, 1)" font-family="Helvetica" pointer-events="none" clip-path="url(#mx-clip-747-271-114-30-0)" font-size="12px"><text x="748.5" y="290.5">category</text></g><path d="M 181 136 Q 181 136 656 135.73" fill="none" stroke="#000000" stroke-width="2" stroke-miterlimit="10" pointer-events="none"/><path d="M 187.5 129.5 L 187.5 142.5 M 194 129.49 L 194 142.49" fill="none" stroke="#000000" stroke-width="2" stroke-miterlimit="10" pointer-events="none"/><ellipse cx="661.5" cy="135.73" rx="5" ry="5" fill="none" stroke="#000000" stroke-width="2" pointer-events="none"/><path d="M 681 129.21 L 668 135.72 L 681 142.21 M 668 135.72 L 681 135.71" fill="none" stroke="#000000" stroke-width="2" stroke-miterlimit="10" pointer-events="none"/><path d="M 861 401 L 861 384.5 Q 861 371 847.5 371 L 694.5 371 Q 681 371 681 384.5 L 681 401" fill="#b3b3b3" stroke="#000000" stroke-width="2" stroke-miterlimit="10" pointer-events="none"/><path d="M 681 401 L 681 477.5 Q 681 491 694.5 491 L 847.5 491 Q 861 491 861 477.5 L 861 401" fill="none" stroke="#000000" stroke-width="2" stroke-miterlimit="10" pointer-events="none"/><path d="M 681 401 L 861 401" fill="none" stroke="#000000" stroke-width="2" stroke-miterlimit="10" pointer-events="none"/><path d="M 741 401 L 741 491" fill="none" stroke="#000000" stroke-width="2" stroke-miterlimit="10" pointer-events="none"/><g fill="rgba(0, 0, 0, 1)" font-family="Helvetica" font-weight="bold" pointer-events="none" text-anchor="middle" font-size="12px"><text x="770.5" y="390.5">Category</text></g><path d="M 681 401 M 861 401 M 861 431 L 681 431" fill="none" stroke="#000000" stroke-miterlimit="10" pointer-events="none"/><path d="M 681 401 M 741 401 M 741 431 M 681 431" fill="none" stroke="#000000" stroke-miterlimit="10" pointer-events="none"/><g fill="rgba(0, 0, 0, 1)" font-family="Helvetica" font-weight="bold" pointer-events="none" clip-path="url(#mx-clip-681-401-60-30-0)" text-anchor="middle" font-size="12px"><text x="710.5" y="420.5">PK</text></g><path d="M 741 401 M 861 401 M 861 431 M 741 431" fill="none" stroke="#000000" stroke-miterlimit="10" pointer-events="none"/><g fill="rgba(0, 0, 0, 1)" font-family="Helvetica" font-weight="bold" pointer-events="none" clip-path="url(#mx-clip-747-401-114-30-0)" font-size="12px"><text x="748.5" y="420.5">ID</text></g><path d="M 681 431 M 861 431 M 861 461 M 681 461" fill="none" stroke="#000000" stroke-miterlimit="10" pointer-events="none"/><path d="M 681 431 M 741 431 M 741 461 M 681 461" fill="none" stroke="#000000" stroke-miterlimit="10" pointer-events="none"/><g fill="rgba(0, 0, 0, 1)" font-family="Helvetica" pointer-events="none" clip-path="url(#mx-clip-681-431-60-30-0)" text-anchor="middle" font-size="12px"><text x="710.5" y="450.5">str</text></g><path d="M 741 431 M 861 431 M 861 461 M 741 461" fill="none" stroke="#000000" stroke-miterlimit="10" pointer-events="none"/><g fill="rgba(0, 0, 0, 1)" font-family="Helvetica" pointer-events="none" clip-path="url(#mx-clip-747-431-114-30-0)" font-size="12px"><text x="748.5" y="450.5">title</text></g><path d="M 681 461 M 861 461 M 861 491 M 681 491" fill="none" stroke="#000000" stroke-miterlimit="10" pointer-events="none"/><path d="M 681 461 M 741 461 M 741 491 M 681 491" fill="none" stroke="#000000" stroke-miterlimit="10" pointer-events="none"/><g fill="rgba(0, 0, 0, 1)" font-family="Helvetica" pointer-events="none" clip-path="url(#mx-clip-681-461-60-30-0)" text-anchor="middle" font-size="12px"><text x="710.5" y="480.5">FK</text></g><path d="M 741 461 M 861 461 M 861 491 M 741 491" fill="none" stroke="#000000" stroke-miterlimit="10" pointer-events="none"/><g fill="rgba(0, 0, 0, 1)" font-family="Helvetica" pointer-events="none" clip-path="url(#mx-clip-747-461-114-30-0)" font-size="12px"><text x="748.5" y="480.5">parent</text></g><path d="M 681 416 Q 611 416 611 351 Q 611 286 681 286" fill="none" stroke="#000000" stroke-width="2" stroke-miterlimit="10" pointer-events="none"/><path d="M 674.5 422.5 L 674.5 409.5 M 668 422.5 L 668 409.5" fill="none" stroke="#000000" stroke-width="2" stroke-miterlimit="10" pointer-events="none"/><path d="M 668 292.5 L 668 279.5 M 681 279.5 L 668 286 L 681 292.5" fill="none" stroke="#000000" stroke-width="2" stroke-miterlimit="10" pointer-events="none"/><path d="M 511 31 L 511 14.5 Q 511 1 497.5 1 L 344.5 1 Q 331 1 331 14.5 L 331 31" fill="#b3b3b3" stroke="#000000" stroke-width="2" stroke-miterlimit="10" pointer-events="none"/><path d="M 331 31 L 331 107.5 Q 331 121 344.5 121 L 497.5 121 Q 511 121 511 107.5 L 511 31" fill="none" stroke="#000000" stroke-width="2" stroke-miterlimit="10" pointer-events="none"/><path d="M 331 31 L 511 31" fill="none" stroke="#000000" stroke-width="2" stroke-miterlimit="10" pointer-events="none"/><path d="M 391 31 L 391 121" fill="none" stroke="#000000" stroke-width="2" stroke-miterlimit="10" pointer-events="none"/><g fill="rgba(0, 0, 0, 1)" font-family="Helvetica" font-weight="bold" pointer-events="none" text-anchor="middle" font-size="12px"><text x="420.5" y="20.5">Favorite_list</text></g><path d="M 331 31 M 511 31 M 511 61 L 331 61" fill="none" stroke="#000000" stroke-miterlimit="10" pointer-events="none"/><path d="M 331 31 M 391 31 M 391 61 M 331 61" fill="none" stroke="#000000" stroke-miterlimit="10" pointer-events="none"/><g fill="rgba(0, 0, 0, 1)" font-family="Helvetica" font-weight="bold" pointer-events="none" clip-path="url(#mx-clip-331-31-60-30-0)" text-anchor="middle" font-size="12px"><text x="360.5" y="50.5">PK</text></g><path d="M 391 31 M 511 31 M 511 61 M 391 61" fill="none" stroke="#000000" stroke-miterlimit="10" pointer-events="none"/><g fill="rgba(0, 0, 0, 1)" font-family="Helvetica" font-weight="bold" pointer-events="none" clip-path="url(#mx-clip-397-31-114-30-0)" font-size="12px"><text x="398.5" y="50.5">ID</text></g><path d="M 331 61 M 511 61 M 511 91 M 331 91" fill="none" stroke="#000000" stroke-miterlimit="10" pointer-events="none"/><path d="M 331 61 M 391 61 M 391 91 M 331 91" fill="none" stroke="#000000" stroke-miterlimit="10" pointer-events="none"/><g fill="rgba(0, 0, 0, 1)" font-family="Helvetica" pointer-events="none" clip-path="url(#mx-clip-331-61-60-30-0)" text-anchor="middle" font-size="12px"><text x="360.5" y="80.5">FK</text></g><path d="M 391 61 M 511 61 M 511 91 M 391 91" fill="none" stroke="#000000" stroke-miterlimit="10" pointer-events="none"/><g fill="rgba(0, 0, 0, 1)" font-family="Helvetica" pointer-events="none" clip-path="url(#mx-clip-397-61-114-30-0)" font-size="12px"><text x="398.5" y="80.5">customer</text></g><path d="M 331 91 M 511 91 M 511 121 M 331 121" fill="none" stroke="#000000" stroke-miterlimit="10" pointer-events="none"/><path d="M 331 91 M 391 91 M 391 121 M 331 121" fill="none" stroke="#000000" stroke-miterlimit="10" pointer-events="none"/><g fill="rgba(0, 0, 0, 1)" font-family="Helvetica" pointer-events="none" clip-path="url(#mx-clip-331-91-60-30-0)" text-anchor="middle" font-size="12px"><text x="360.5" y="110.5">M2M</text></g><path d="M 391 91 M 511 91 M 511 121 M 391 121" fill="none" stroke="#000000" stroke-miterlimit="10" pointer-events="none"/><g fill="rgba(0, 0, 0, 1)" font-family="Helvetica" pointer-events="none" clip-path="url(#mx-clip-397-91-114-30-0)" font-size="12px"><text x="398.5" y="110.5">product</text></g><path d="M 331 76 Q 256.71 76 256.71 106 Q 256.71 136 181 136" fill="none" stroke="#000000" stroke-width="2" stroke-miterlimit="10" pointer-events="none"/><path d="M 324.5 82.5 L 324.5 69.5 M 318 82.5 L 318 69.5" fill="none" stroke="#000000" stroke-width="2" stroke-miterlimit="10" pointer-events="none"/><path d="M 187.5 129.5 L 187.5 142.5 M 194 129.5 L 194 142.5" fill="none" stroke="#000000" stroke-width="2" stroke-miterlimit="10" pointer-events="none"/><path d="M 536 106 Q 596.71 106 656 106" fill="none" stroke="#000000" stroke-width="2" stroke-miterlimit="10" pointer-events="none"/><ellipse cx="530.5" cy="106" rx="5" ry="5" fill="none" stroke="#000000" stroke-width="2" pointer-events="none"/><path d="M 511 112.5 L 524 106 L 511 99.5 M 524 106 L 511 106" fill="none" stroke="#000000" stroke-width="2" stroke-miterlimit="10" pointer-events="none"/><ellipse cx="661.5" cy="106" rx="5" ry="5" fill="none" stroke="#000000" stroke-width="2" pointer-events="none"/><path d="M 681 99.5 L 668 106 L 681 112.5 M 668 106 L 681 106" fill="none" stroke="#000000" stroke-width="2" stroke-miterlimit="10" pointer-events="none"/><path d="M 511 211 L 511 194.5 Q 511 181 497.5 181 L 344.5 181 Q 331 181 331 194.5 L 331 211" fill="#b3b3b3" stroke="#000000" stroke-width="2" stroke-miterlimit="10" pointer-events="none"/><path d="M 331 211 L 331 287.5 Q 331 301 344.5 301 L 497.5 301 Q 511 301 511 287.5 L 511 211" fill="none" stroke="#000000" stroke-width="2" stroke-miterlimit="10" pointer-events="none"/><path d="M 331 211 L 511 211" fill="none" stroke="#000000" stroke-width="2" stroke-miterlimit="10" pointer-events="none"/><path d="M 391 211 L 391 301" fill="none" stroke="#000000" stroke-width="2" stroke-miterlimit="10" pointer-events="none"/><g fill="rgba(0, 0, 0, 1)" font-family="Helvetica" font-weight="bold" pointer-events="none" text-anchor="middle" font-size="12px"><text x="420.5" y="200.5">Order</text></g><path d="M 331 211 M 511 211 M 511 241 L 331 241" fill="none" stroke="#000000" stroke-miterlimit="10" pointer-events="none"/><path d="M 331 211 M 391 211 M 391 241 M 331 241" fill="none" stroke="#000000" stroke-miterlimit="10" pointer-events="none"/><g fill="rgba(0, 0, 0, 1)" font-family="Helvetica" font-weight="bold" pointer-events="none" clip-path="url(#mx-clip-331-211-60-30-0)" text-anchor="middle" font-size="12px"><text x="360.5" y="230.5">PK</text></g><path d="M 391 211 M 511 211 M 511 241 M 391 241" fill="none" stroke="#000000" stroke-miterlimit="10" pointer-events="none"/><g fill="rgba(0, 0, 0, 1)" font-family="Helvetica" font-weight="bold" pointer-events="none" clip-path="url(#mx-clip-397-211-114-30-0)" font-size="12px"><text x="398.5" y="230.5">ID</text></g><path d="M 331 241 M 511 241 M 511 271 M 331 271" fill="none" stroke="#000000" stroke-miterlimit="10" pointer-events="none"/><path d="M 331 241 M 391 241 M 391 271 M 331 271" fill="none" stroke="#000000" stroke-miterlimit="10" pointer-events="none"/><g fill="rgba(0, 0, 0, 1)" font-family="Helvetica" pointer-events="none" clip-path="url(#mx-clip-331-241-60-30-0)" text-anchor="middle" font-size="12px"><text x="360.5" y="260.5">FK</text></g><path d="M 391 241 M 511 241 M 511 271 M 391 271" fill="none" stroke="#000000" stroke-miterlimit="10" pointer-events="none"/><g fill="rgba(0, 0, 0, 1)" font-family="Helvetica" pointer-events="none" clip-path="url(#mx-clip-397-241-114-30-0)" font-size="12px"><text x="398.5" y="260.5">customer</text></g><path d="M 331 271 M 511 271 M 511 301 M 331 301" fill="none" stroke="#000000" stroke-miterlimit="10" pointer-events="none"/><path d="M 331 271 M 391 271 M 391 301 M 331 301" fill="none" stroke="#000000" stroke-miterlimit="10" pointer-events="none"/><g fill="rgba(0, 0, 0, 1)" font-family="Helvetica" pointer-events="none" clip-path="url(#mx-clip-331-271-60-30-0)" text-anchor="middle" font-size="12px"><text x="360.5" y="290.5">M2M</text></g><path d="M 391 271 M 511 271 M 511 301 M 391 301" fill="none" stroke="#000000" stroke-miterlimit="10" pointer-events="none"/><g fill="rgba(0, 0, 0, 1)" font-family="Helvetica" pointer-events="none" clip-path="url(#mx-clip-397-271-114-30-0)" font-size="12px"><text x="398.5" y="290.5">product</text></g><path d="M 181 166 Q 256.71 166 256.71 211 Q 256.71 256 331 256" fill="none" stroke="#000000" stroke-width="2" stroke-miterlimit="10" pointer-events="none"/><path d="M 187.5 159.5 L 187.5 172.5 M 194 159.5 L 194 172.5" fill="none" stroke="#000000" stroke-width="2" stroke-miterlimit="10" pointer-events="none"/><path d="M 318 262.5 L 318 249.5 M 331 249.5 L 318 256 L 331 262.5" fill="none" stroke="#000000" stroke-width="2" stroke-miterlimit="10" pointer-events="none"/><path d="M 681 166 Q 591 166 591 226 Q 591 286 536 286" fill="none" stroke="#000000" stroke-width="2" stroke-miterlimit="10" pointer-events="none"/><path d="M 668 172.5 L 668 159.5 M 681 159.5 L 668 166 L 681 172.5" fill="none" stroke="#000000" stroke-width="2" stroke-miterlimit="10" pointer-events="none"/><ellipse cx="530.5" cy="286" rx="5" ry="5" fill="none" stroke="#000000" stroke-width="2" pointer-events="none"/><path d="M 511 292.5 L 524 286 L 511 279.5 M 524 286 L 511 286" fill="none" stroke="#000000" stroke-width="2" stroke-miterlimit="10" pointer-events="none"/><path d="M 511 371 L 511 354.5 Q 511 341 497.5 341 L 344.5 341 Q 331 341 331 354.5 L 331 371" fill="#b3b3b3" stroke="#000000" stroke-width="2" stroke-miterlimit="10" pointer-events="none"/><path d="M 331 371 L 331 477.5 Q 331 491 344.5 491 L 497.5 491 Q 511 491 511 477.5 L 511 371" fill="none" stroke="#000000" stroke-width="2" stroke-miterlimit="10" pointer-events="none"/><path d="M 331 371 L 511 371" fill="none" stroke="#000000" stroke-width="2" stroke-miterlimit="10" pointer-events="none"/><path d="M 391 371 L 391 491" fill="none" stroke="#000000" stroke-width="2" stroke-miterlimit="10" pointer-events="none"/><g fill="rgba(0, 0, 0, 1)" font-family="Helvetica" font-weight="bold" pointer-events="none" text-anchor="middle" font-size="12px"><text x="420.5" y="360.5">Comment</text></g><path d="M 331 371 M 511 371 M 511 401 L 331 401" fill="none" stroke="#000000" stroke-miterlimit="10" pointer-events="none"/><path d="M 331 371 M 391 371 M 391 401 M 331 401" fill="none" stroke="#000000" stroke-miterlimit="10" pointer-events="none"/><g fill="rgba(0, 0, 0, 1)" font-family="Helvetica" font-weight="bold" pointer-events="none" clip-path="url(#mx-clip-331-371-60-30-0)" text-anchor="middle" font-size="12px"><text x="360.5" y="390.5">PK</text></g><path d="M 391 371 M 511 371 M 511 401 M 391 401" fill="none" stroke="#000000" stroke-miterlimit="10" pointer-events="none"/><g fill="rgba(0, 0, 0, 1)" font-family="Helvetica" font-weight="bold" pointer-events="none" clip-path="url(#mx-clip-397-371-114-30-0)" font-size="12px"><text x="398.5" y="390.5">ID</text></g><path d="M 331 401 M 511 401 M 511 431 M 331 431" fill="none" stroke="#000000" stroke-miterlimit="10" pointer-events="none"/><path d="M 331 401 M 391 401 M 391 431 M 331 431" fill="none" stroke="#000000" stroke-miterlimit="10" pointer-events="none"/><g fill="rgba(0, 0, 0, 1)" font-family="Helvetica" pointer-events="none" clip-path="url(#mx-clip-331-401-60-30-0)" text-anchor="middle" font-size="12px"><text x="360.5" y="420.5">FK</text></g><path d="M 391 401 M 511 401 M 511 431 M 391 431" fill="none" stroke="#000000" stroke-miterlimit="10" pointer-events="none"/><g fill="rgba(0, 0, 0, 1)" font-family="Helvetica" pointer-events="none" clip-path="url(#mx-clip-397-401-114-30-0)" font-size="12px"><text x="398.5" y="420.5">customer</text></g><path d="M 331 431 M 511 431 M 511 461 M 331 461" fill="none" stroke="#000000" stroke-miterlimit="10" pointer-events="none"/><path d="M 331 431 M 391 431 M 391 461 M 331 461" fill="none" stroke="#000000" stroke-miterlimit="10" pointer-events="none"/><g fill="rgba(0, 0, 0, 1)" font-family="Helvetica" pointer-events="none" clip-path="url(#mx-clip-331-431-60-30-0)" text-anchor="middle" font-size="12px"><text x="360.5" y="450.5">FK</text></g><path d="M 391 431 M 511 431 M 511 461 M 391 461" fill="none" stroke="#000000" stroke-miterlimit="10" pointer-events="none"/><g fill="rgba(0, 0, 0, 1)" font-family="Helvetica" pointer-events="none" clip-path="url(#mx-clip-397-431-114-30-0)" font-size="12px"><text x="398.5" y="450.5">product</text></g><path d="M 331 461 M 511 461 M 511 491 M 331 491" fill="none" stroke="#000000" stroke-miterlimit="10" pointer-events="none"/><path d="M 331 461 M 391 461 M 391 491 M 331 491" fill="none" stroke="#000000" stroke-miterlimit="10" pointer-events="none"/><g fill="rgba(0, 0, 0, 1)" font-family="Helvetica" pointer-events="none" clip-path="url(#mx-clip-331-461-60-30-0)" text-anchor="middle" font-size="12px"><text x="360.5" y="480.5">text</text></g><path d="M 391 461 M 511 461 M 511 491 M 391 491" fill="none" stroke="#000000" stroke-miterlimit="10" pointer-events="none"/><g fill="rgba(0, 0, 0, 1)" font-family="Helvetica" pointer-events="none" clip-path="url(#mx-clip-397-461-114-30-0)" font-size="12px"><text x="398.5" y="480.5">body</text></g><path d="M 181 196 Q 256.71 196 256.71 306 Q 256.71 416 306 416" fill="none" stroke="#000000" stroke-width="2" stroke-miterlimit="10" pointer-events="none"/><path d="M 187.5 189.5 L 187.5 202.5 M 194 189.5 L 194 202.5" fill="none" stroke="#000000" stroke-width="2" stroke-miterlimit="10" pointer-events="none"/><ellipse cx="311.5" cy="416" rx="5" ry="5" fill="none" stroke="#000000" stroke-width="2" pointer-events="none"/><path d="M 331 409.5 L 318 416 L 331 422.5 M 318 416 L 331 416" fill="none" stroke="#000000" stroke-width="2" stroke-miterlimit="10" pointer-events="none"/><path d="M 536 446 Q 581 446 581 336 Q 581 226 681 226" fill="none" stroke="#000000" stroke-width="2" stroke-miterlimit="10" pointer-events="none"/><ellipse cx="530.5" cy="446" rx="5" ry="5" fill="none" stroke="#000000" stroke-width="2" pointer-events="none"/><path d="M 511 452.5 L 524 446 L 511 439.5 M 524 446 L 511 446" fill="none" stroke="#000000" stroke-width="2" stroke-miterlimit="10" pointer-events="none"/><path d="M 674.5 232.5 L 674.5 219.5 M 668 232.5 L 668 219.5" fill="none" stroke="#000000" stroke-width="2" stroke-miterlimit="10" pointer-events="none"/></g></svg>